# xmcd
#
# Track frame offsets:
#	188
#	21153
#	38423
#	63068
#	81083
#	96275
#	107833
#	126930
#	149643
#	167090
#	184580
#
# Disc length: 2642 seconds
#
# Revision: 1
# Processed by: cddbd v1.5.1PL2 Copyright (c) Steve Scherf et al.
# Submitted via: audiograbber 1.82.01
#
DISCID=8d0a500b
DTITLE=Ward, James - Two Days At Shiloh
DYEAR=1992
DGENRE=
TTITLE0=Just Like Us
TTITLE1=I'm A Soldier
TTITLE2=Change The World
TTITLE3=Battlefield
TTITLE4=Musical Adventure
TTITLE5=The Dream
TTITLE6=No Competition
TTITLE7=Banboo Walk
TTITLE8=Shame Oh Shame
TTITLE9=Give It Away
TTITLE10=Overcome Evil (With Good)
EXTD=
EXTT0=
EXTT1=
EXTT2=
EXTT3=
EXTT4=
EXTT5=
EXTT6=
EXTT7=
EXTT8=
EXTT9=
EXTT10=
PLAYORDER=
